<?xml version="1.0" encoding="UTF-8"?>
<svg id="Brush" xmlns="http://www.w3.org/2000/svg" version="1.1" viewBox="0 0 5541.6 1985.3">
  <defs>
    <style>
      .cls-1 {
        fill: #382d26;
        stroke-width: 0px;
      }
    </style>
  </defs>
  <path class="cls-1" d="M1698.1,1094.6c-19.3-100.1-57.9-197.8-117.8-280.8-60.7-84-144.5-154.2-238.3-198.5-22.2-10.5-45.1-19.5-68.6-26.8-4.4-108.8-26.2-217.7-62.5-320-10.2-28.6-21.7-56.7-34.9-84.1-6.5-13.4-13.4-26.7-20.8-39.7-6.7-11.8-13.4-24.1-21.8-34.9-.9-1.1-1.7-2.2-2.7-3.3-.2-.2-.3-.4-.5-.6-1.3-1.6-2.8-3.2-4.4-4.7-11.8-11.6-27.1-19.7-43.2-23.4-20.9-4.8-41.6-1.6-59.4,10.4-14.7,9.9-25.2,24.3-29.4,41.5-4.2,17.1-2.9,34.9.3,52,3.2,17.3,8.6,34.1,14.2,50.7,7.2,21.3,14.4,42.5,21.2,63.9,17.3,54.5,32.7,109.9,40.9,166.6,5.1,35.2,7.6,71.1,8.7,106.8-.2,0-.4,0-.6,0-106.6,10.9-206,57.5-290.2,122.6-83.5,64.6-153.8,148-202.8,241.6-32.1,61.4-56.7,126.7-74.1,193.9-79.2-29.7-138-93.4-180.8-164.4-49.7-82.5-75.9-175.9-80.4-271.9-2.3-48.1.4-96.4,6.6-144.2,6.2-48.3,15.5-96.9,28.8-143.8,14.3-50.5,34.7-99,57-146.5,10-21.4,20.3-42.7,31-63.7,8-15.7,15.9-31.4,22.5-47.7,12.2-30.3,20.6-68.5-.6-97-11.2-15.1-28.1-26.8-46.9-29.7-19.3-3-39.5.6-56.9,9.5-8,4.1-15.4,9.7-21.3,16.5-.2.2-.4.5-.5.7-4.1,4.4-8,9.1-11.8,13.7-18,22.1-34.9,45.1-50.5,68.9-4.7,7.2-9.2,14.4-13.6,21.7-24.7,38.8-44.2,81.4-61.9,123.7-18.4,44.2-33.8,89.7-46,136-24.2,92-35.8,187.6-33,282.7,2.7,89.1,20.9,176.7,53.5,259.7,32.2,82.1,77,159.5,134.1,226.9,57.6,67.9,132.9,118.4,215.5,151,7.9,3.1,15.8,6,23.8,8.8-3.8,93.1,5.5,186.8,28.7,277,7.5,29.3,16.6,58.3,27.2,86.6,6.6,17.8,13.1,36.7,22.7,53.5,2.7,5.5,6.3,10.7,10.4,15.5,1.5,1.9,3,3.7,4.6,5.5,5.6,6.1,12.3,11.2,19.6,14.7,2.4,1.5,4.9,2.9,7.4,4.1,17.6,8.9,37.2,13.1,56.4,6.8,16.1-5.3,30.2-15,39.5-29.3,8.6-13.2,11.9-29.2,12.9-44.7,2-31.3-5.8-62.4-11.7-92.9-10.2-52.6-19.5-105.4-24-158.8-3-35.2-3.1-70.4-1.3-105.5,114,0,223.6-43.6,312.7-113.7,91.3-71.8,162.4-168.8,211.6-273.5,25.8-54.9,45.1-112.2,58-170.9,80.5,21.7,144.9,79.6,186.3,151,48.6,84,77.2,181.6,78,278.8.9,106.5-28.6,211.3-66,310.2-18.3,48.4-42.6,94.1-69.6,138.3-13.9,22.8-28.5,45.1-43.3,67.3-10.9,16.4-22.4,32.4-33,49-19.8,31.2-40.1,71.1-23.9,108,16.9,38.5,63.1,52.2,101,38.6,9.3-3.3,17.7-8.1,25.1-14.6,0,0,.2-.2.3-.3,1-.8,2.1-1.6,3.1-2.5,42.2-36.2,78.7-80,112.4-124,30.6-39.9,57.7-82.5,81-127,47.2-90.2,79.7-188.3,95.6-288.9,15.9-100.2,15.7-202.8-3.6-302.6ZM274.9,1187.5c-58.9-61.8-104.7-137.2-138.6-215.3-34.1-78.5-56.3-163.2-61.7-248.7-5.9-92.6,2.3-185.9,23-276.3,17.7-77.5,44.2-153.6,79.6-225,.6-.6,1.2-1.3,1.6-2.2,10-20.5,20.9-40.5,32.7-60,1.2-1.8,2.3-3.7,3.5-5.5.4-.7.8-1.3,1-2,13-21.1,27.1-41.5,42.2-61.2,7.3-9.5,14.8-19,22.7-28,7.3-8.3,15.3-15.3,26-18.6,8.9-2.7,22-4.3,30.2,1.2,8.1,5.4,11.9,17.1,13.4,26.2,4.2,26.9-9.9,54.6-23.2,77-6.6,11.1,10.7,21.2,17.3,10.1,14.4-24.2,28-52.8,26.5-81.6-.6-11.2-3.3-22.6-9-32.4,4.5,2.5,8.6,5.8,12.5,9.8,22.9,23.4,13.2,58.3,2.2,85.6-6.2,15.3-13.9,29.9-21.3,44.6-10.9,21.5-21.3,43.1-31.5,64.9-22,47.2-42.3,95.4-56.8,145.4-13.5,46.8-22.7,95.4-29.2,143.7-6.4,47.4-9.7,95.3-8.1,143.1,3.2,96.1,26.7,191,73.9,275.1,41,73,97.5,141,174.1,178,9.4,4.5,19,8.5,28.7,12.2-1.2,4.9-2.3,9.8-3.4,14.8-32.1-10.5-62.1-27.2-89.7-46.5-28.9-20.3-55.7-44.2-78.3-71.3-44.5-53.3-77.7-116.2-99.8-181.9-22.4-66.7-33.8-136.8-34.8-207.1-1.1-75.1,9.7-150,29.3-222.4,19.9-73.5,48.8-144.4,84.1-211.9,4.4-8.5,9-16.9,13.6-25.3,6.2-11.3-11-21.4-17.3-10.1-37.9,68.6-69.7,141-92.3,216.1-22.5,74.6-36,152.3-37.4,230.3-1.3,72.2,8.1,145,28.7,214.3,20.6,69.1,52.6,135.3,96.4,192.7,44.5,58.5,104.1,106.9,172.3,135,6.9,2.9,14,5.4,21.1,7.7-5.7,28.5-10.2,57.3-13.5,86.2-1.9,16.7-3.3,33.4-4.4,50.1-77.2-27.5-149.5-71.3-206.2-130.7ZM678.8,1643c2.9,14.6,6,29.2,8.3,43.9,2.1,13.6,3.5,30,2.1,45-1.1,11.8-5.2,26.3-12.6,35-7,8.3-17.4,15-28.3,17.7,17.8-16.2,23.2-43.5,22.1-66.5-.8-16.4-3.9-32.8-8.2-48.5-3.4-12.4-22.7-7.1-19.3,5.3,7.1,26.2,13.5,58.5.2,83.9-4.9,9.3-12.7,16.8-23.5,18.4-5.4.8-10.6,0-15.4-2.1-5-3.1-9.6-6.6-13.7-10.4-6.3-5.8-11.5-12.2-15.1-20-.4-.7-.8-1.4-1.4-2-6.6-12.5-11.4-26.3-16.2-38.9-10.6-27.6-19.7-55.8-27.3-84.3-28.9-107.9-37.2-220.9-26.9-332,10.3-110.9,39.7-220.7,88.1-321.1,44.1-91.3,107.4-172.7,184.5-238.4,76.3-65,167.9-114.8,267.1-133.1,11.6-2.1,23.4-3.8,35.1-5,.3,0,.7,0,1-.1.1,7.2.2,14.4.2,21.6,0,38.7-2,77.6-7.2,116-.3,0-.6,0-.8,0-74.6,2.2-144.8,35-204,78.8-54.4,40.2-101,90-139,146-37.9,55.9-67.1,117.7-87.4,182.1-23.3,74.2-34.5,152.1-36,229.8-1.5,81.1,7.6,162.3,24.5,241.5,2.1,9.9,4.3,19.7,6.7,29.5,3,12.5,22.3,7.2,19.3-5.3-18.3-76.9-29.3-155.5-30.5-234.6-1.1-77.2,7.2-154.6,27.5-229.2,17.3-63.3,43.3-124.2,77.8-180,34.1-55.3,76.7-105.4,127-146.7,53.6-44.1,118.2-80.7,188-89.8,8-1,16-1.6,24-1.9-.7,4.4-1.5,8.8-2.3,13.2-.2,1.2-.5,2.4-.7,3.6-1.5-1-3.3-1.6-5.2-1.4-95.6,9-178.9,72.8-240.1,143-58.8,67.5-101.5,147.2-128.5,232.3-27.3,85.8-40,177.2-41.5,267.1-.9,53.7,5.4,107.3,13.9,160.2,4.2,25.9,8.9,51.8,13.9,77.6ZM1062.5,782.6c-9,40.1-22,79.3-40.6,115.9-11.3,22.1-24.1,43.6-37.3,64.7-9.9,15.8-20.4,31.2-31.9,45.7-11.4,14.2-23.7,27.7-36.3,40.8-16.2,16.9-32.8,33.3-51.4,47.5-38.3,29.1-83.8,52.1-132.2,57.3-8.2.9-16.4,1.3-24.6,1.1,21.6-71.8,54-140.1,98.8-200.5,27.5-37.1,59.5-71.5,95.6-100.4,37.1-29.7,79.8-54.4,126.1-66.1,10.7-2.7,21.5-4.7,32.5-5.7.5,0,.9-.1,1.4-.2ZM1190.4,949.7c-44,101.9-108.1,196.7-191.5,270.5-81.4,72.1-183.5,121.9-292.8,130.1-10.8.8-21.7,1.2-32.5,1.2.6-8.2,1.3-16.3,2-24.5,3.6-38.7,9.4-77.3,17.9-115.2,74.1-1.7,146.9-26.6,207.9-68.5,61.2-42.1,111.2-100.7,149.4-164.1,38.6-64,65.7-135,81.4-208,17.2-80.1,20.4-162.8,12.5-244.2-8.3-85.3-28.2-169.3-56.8-250-3.5-9.9-7.2-19.8-11-29.7-1.9-5-6.7-8.5-12.3-7-4.8,1.3-8.9,7.2-7,12.3,29.9,78,52.3,159.2,63.4,242.1,10.8,80.3,11.2,162.6-2.6,242.5-12.2,71.2-35.1,140.8-69.3,204.6-34,63.4-79.2,122.4-135.5,167.7-56.2,45.3-126.2,75.1-198.4,81.2-5.6.5-11.3.8-16.9,1,1.3-5.4,2.7-10.8,4.2-16.1,47.6,1.9,94.5-13,135.6-36.5,40.7-23.3,74.5-55.2,106-89.5,25.7-28,47.5-58.7,67.1-91.3,12.9-21.5,25.6-43.2,36-66,10.2-22.3,18.8-45.5,25.7-69.1,27.6-94.7,30.6-195.4,24-293.2-3.7-54.4-11.6-107.6-25.3-160.4-12.5-48.4-28.2-96-44.3-143.3-10.2-30-22.6-65.5-12.7-95.7,2.1-6.3,5.8-12.7,10.5-17.7,5.5-5.7,12.1-10.1,19.4-13.2-15,19.1-16.7,46.8-12.5,70.1,2.8,15.2,7.8,30,13.8,44.3,2.1,5,6.6,8.5,12.3,7,4.7-1.3,9.1-7.3,7-12.3-10.8-25.7-21.7-57.3-11.3-84.8,4.3-11.4,12.1-21.5,25-21.5,12.1,0,24.2,4.7,33,13.1,1.8,1.7,3.5,3.6,5.1,5.5.4.5.8,1,1.2,1.6.4.5.8,1,1.2,1.5,6.3,8.4,11.4,18.1,16.5,27,7.3,12.6,14.1,25.5,20.5,38.5,12.7,25.7,23.7,52.1,33.4,79,39.5,109,62.1,225.6,64.4,341.6,2.4,116.4-17.5,232.4-63.8,339.6ZM1303.7,1912.2c-18.5-31.5,5.1-70.4,22.3-96.9,25-38.7,51.7-76.1,75.7-115.5,27.1-44.5,51.2-90.5,69.7-139.3,37.3-98.3,66.3-201.9,67.5-307.8,1.1-97.6-25.4-195.8-71.3-281.6-40.7-76.2-103-140.9-185.7-170.3-7.6-2.7-15.4-5.1-23.2-7.1,1.1-5.6,2.1-11.3,3.1-16.9,76.3,21.7,142.2,68.7,190.4,131.8,50.2,65.7,81.5,144.4,97.9,225,19.7,96.5,16.5,196.2-6.2,291.9-26.8,113.5-78.5,219.4-141.2,317.3-16,25-32.6,49.8-50.3,73.8-14.9,20.2-31.1,40.2-37,65.2-3.4,14.3-3.4,32,2.3,46.5-5.6-4.3-10.4-9.7-14.1-16ZM1689.9,1329.6c-8.5,99.4-33.8,197.9-73.8,289.3-40.7,93-97.3,177.8-165.8,252.7-9.6,10.4-19.4,20.6-29.6,30.5-7.6,7.4-15.3,15.6-23.8,22.3-.6.4-1.2.8-1.8,1.3-.2.2-.4.4-.7.5-1.3.9-2.6,1.9-4,2.7-10.2,6.4-22.5,9.1-34.4,6.9-5.7-1-11.9-2.8-15.5-7.7-3.8-5.1-5.9-11.7-6.9-17.9-4-25.4,10.2-48.5,24.5-68.1,16.3-22.3,32.5-44.7,47.8-67.7,63.4-95.4,117.1-198.6,148.4-309.2,27.6-97.6,36.3-199.5,21.6-300-11.9-81.2-38.3-161.6-82-231.4-42.8-68.5-103.3-126.5-177.9-159-16.6-7.2-33.6-13.3-51-18.1,6.3-42.3,9.4-85.2,9.3-128.3,0-6.3,0-12.6-.2-18.8,94.4,30.9,179.8,90.1,246.8,162.8,68.2,73.9,115,165.8,142.4,262.2,27.1,95.7,35.1,195.9,26.6,294.9Z"/>
  <g>
    <path class="cls-1" d="M2419,374.4c1.1,0,2.2-.4,2.9-1.1.8-.8,1.2-1.8,1.2-2.9v-5.7c.3-6.3-.4-7-1.1-7.8-.8-.8-1.8-1.2-2.9-1.2h-150.1c-1.1,0-2.1.4-2.8,1.2q-1.2,1.2-1.2,7.7v5.9c0,2.4,1.7,3.8,3.4,4.1.5,0,1.1,0,1.6,0,13.4.2,26.3,4.2,37.5,11.6,19.1,13.8,24.2,38.3,25.2,56.5,0,1.7.1,3.4.2,5v1.8s0,37.3,0,37.3c0,1.1,0,2.1,0,3.2,0,1.1,0,2.2,0,3.3,0,36.8,0,74.7,0,112.7,0,38,0,76,0,112.7v41.8c-17.9-28.2-35.2-56.7-51.9-84.3-19-31.4-38.7-63.8-59.2-95.7-15.7-24.4-31.5-49.4-46.7-73.6-30.5-48.2-62-98.1-94.3-146.3-.2-.3-.4-.6-.6-.9-1.4-2.1-2.2-2.9-4.8-3.8-.2,0-.4-.1-.6-.2-3.2-.7-6.4-.8-9.6-.3l-96.8.2c-2.2,0-4,1.8-4,4v11c0,1.1.5,2.2,1.3,2.9s1.9,1.1,3,1c.2,0,22.3-1.6,40.9,14.9,16,14.2,24.6,37.4,25.8,68.9,0,.3,0,.6.1.8,0,24.7.1,51.4.2,78.4.2,80.1.4,162.9.4,198.3s0,0,0,.1c.4,13.8-1.7,27.4-6.4,40.4-9.2,24.1-32.6,39.5-58.4,38.4-1.1,0-2.2.4-2.9,1.1-.8.8-1.2,1.8-1.2,2.9v5.8c0,.1,0,1.4,0,2.6,0,.6,0,1.2,0,1.7,0,4.4,3.4,4.7,4,4.7,23.9,0,49.9-.3,75-.5,25.1-.3,51.1-.5,74.9-.5s2.1-.4,2.8-1.2q1.2-1.2,1.2-7.7v-5.9c0-2.4-1.7-3.8-3.4-4.1-.5,0-1.1,0-1.6,0-13.4-.2-26.3-4.2-37.5-11.6-19.1-13.8-24.2-38.3-25.2-56.5,0-1.7-.1-3.3-.2-5v-1.8s0-37.4,0-37.4c0-1.1,0-2.1,0-3.2,0-1.1,0-2.2,0-3.3,0-33.4,0-88.8,0-146.2,0-55.3,0-112.6,0-153.8,29.1,45.6,58.3,91.1,87.4,136.7,52,81.3,103.9,162.5,155.9,243.8l35.5,55.6c0,.1.1.2.2.3.7,1,1.7,1.5,3,1.5,0,0,.1,0,.2,0h10.6c1.1,0,2.1-.4,2.8-1.2q1.2-1.2,1.2-7.7v-163.3c0-33.7,0-68.7,0-103.7,0-35,0-69.9,0-103.7s0,0,0-.1c-.4-13.8,1.7-27.4,6.4-40.4,9.2-24.1,32.6-39.5,58.4-38.4Z"/>
    <path class="cls-1" d="M2457.2,824.6c0,.5,0,1.3,0,2,0,.6,0,1.2,0,1.7,0,4.4,3.4,4.7,4,4.7h116.1c.7,0,4-.2,4-4.7,0-.4,0-1.1,0-1.7,0-1.2,0-2.4,0-2.6v-5.2c0-2.2-1.8-4-4-4-15.9,0-25.5-3.5-31.1-11.2-8.9-12.3-2.7-34,.3-42.8,4.1-11.8,8.4-23.7,12.5-35.2,2.2-6,4.3-12.1,6.5-18.1l11.7-32.8,27.7-78.3h125.4l.3,1c0,.4,0,.8.2,1.1l5.5,15.9,1.7,5c.1.4.3.7.4,1h0c0,.2,0,.3.1.4l19.3,57.1,11.4,33.6c2.1,6.3,4.3,12.6,6.5,19,4.2,12.2,8.5,24.8,12.6,37.2,10,30.1-2,40.4-7.7,43.4-7.9,4.2-17.7,4-27.2,3.8-2,0-3.9,0-5.8,0s-4,1.8-4,4v3c0,1.5,0,3.2,0,4.6,0,.7,0,1.3,0,1.8,0,4.4,3.4,4.6,4,4.6h148.3c.7,0,1.3-.2,1.9-.5,2.1-1.1,2.1-2.7,2.2-5.8,0-1.2,0-2.4,0-2.6v-5.1c0-1.1-.5-2.2-1.3-2.9-.8-.8-1.9-1.1-3-1.1-11.9.9-23.6-.6-34.9-4.5-14.8-6.5-25.1-25.8-30-36.8-2.2-5.1-4.1-10.6-5.8-16-.6-1.8-1.2-3.6-1.8-5.4l-33.6-98.6-89.5-262.9-11.5-32.3c-.6-1.6-2.1-2.7-3.8-2.7h-15.4s-48,0-48,0c-1.1,0-2.1.4-2.8,1.2-.8.8-1.2,1.8-1.2,2.8v10.5c0,1.1.5,2.2,1.3,3,.8.8,2,1.1,3.1,1,.2,0,16.6-1.7,25.3,7.2,4.5,4.6,6.2,11.5,5.1,20.6-7.9,21.5-15.7,44.4-23.3,66.5-5.2,15.2-10.5,30.8-15.8,45.6l-80.8,227.9c-.8,2.2-1.5,4.3-2.3,6.5-1.6,4.5-3.2,9.2-4.9,13.8-12,32.9-36.1,52.6-64.3,52.6s-4,.2-4,4.7c0,.5,0,1.1,0,1.7,0,1.2,0,2.4,0,2.6,0,.3,0,.6,0,.8ZM2613.5,573.8c12.6-35.7,20.7-59.2,28.6-81.8,7.6-21.8,15.4-44.4,27.3-78.1l53.4,159.9h-109.2Z"/>
    <path class="cls-1" d="M3308.5,500.7c.4,1.8,2,3.2,3.9,3.2h12.1c1.2,0,2.3-.5,3.1-1.5.8-.9,1.1-2.2.8-3.3l-28.7-140.2c-.4-1.9-2-3.2-3.9-3.2h-344.5c-.7,0-1.3.2-1.9.5h-11c-1.9,0-3.5,1.3-3.9,3.2l-28.7,140.2c-.2,1.2,0,2.4.8,3.3.8.9,1.9,1.5,3.1,1.5h12.1c1.9,0,3.5-1.3,3.9-3.2,0-.3,7-31.9,27.5-63.4,12-18.4,26.3-33,42.4-43.6,20.1-13.1,43.1-19.9,68.5-20.2,8.4,0,16.7-.2,24.9-.2,8.6.8,15.5,7.4,16.5,16v64.5c0,1.1,0,2.3,0,3.4,0,1.2,0,2.3,0,3.5,0,46.7,0,94.6,0,142.5,0,47.9,0,95.9,0,142.6s0,4.2,0,6.3v10.2c0,7.5-1.1,14.9-3.3,22-5.2,15.2-18.3,26.3-34,29.1-11.9,1.5-23.9,1.8-35.9,1.1-1.1,0-2.2.3-3,1.1-.8.8-1.3,1.8-1.3,2.9v3c0,1.5,0,3.2,0,4.6,0,.7,0,1.3,0,1.8,0,4.4,3.4,4.6,4,4.6h182.2c1.1,0,2.1-.4,2.8-1.2,1.2-1.2,1.2-1.5,1.2-7.7v-5.1c0-1.9-1.3-3.6-3.2-4-.6-.1-1.2-.1-1.8,0-2.1,0-4.2,0-6.4,0-22.5.2-45.8.5-59.2-19-7-11.9-10.1-25.5-8.9-39.3,0-.1,0-.2,0-.3,0-20.8,0-42.8,0-64.8,0-22,0-44,0-64.8v-150.8c0-1.2,0-2.5,0-3.8v-82.9c0-1.6.7-15.7,23.3-15.7h7.8c25.4.2,48.4,7,68.4,20.1,16.1,10.5,30.3,25.1,42.4,43.5,20.6,31.5,27.6,63.3,27.7,63.6Z"/>
    <path class="cls-1" d="M3784.3,818.9c0-1.1-.5-2.2-1.3-2.9-.8-.8-1.9-1.1-3-1.1-11.9.9-23.6-.6-34.9-4.5-14.8-6.5-25.1-25.8-30-36.8-2.2-5.1-4.1-10.6-5.8-16-.6-1.8-1.2-3.6-1.8-5.4l-33.6-98.6-89.5-262.9-11.5-32.3c-.6-1.6-2.1-2.7-3.8-2.7h-15.4s-48,0-48,0h0c-1.1,0-2.1.4-2.8,1.2-.8.8-1.2,1.8-1.2,2.8v10.5c0,1.1.5,2.2,1.3,3,.8.8,2,1.1,3.1,1,.2,0,16.6-1.7,25.3,7.2,4.5,4.6,6.2,11.5,5.1,20.6-7.9,21.5-15.7,44.4-23.3,66.5-5.2,15.2-10.5,30.8-15.8,45.6l-80.8,227.9c-.8,2.2-1.5,4.3-2.3,6.5-1.6,4.5-3.2,9.2-4.9,13.8-12,32.9-36.1,52.6-64.3,52.6s-4,.2-4,4.7c0,.5,0,1.1,0,1.7,0,1.2,0,2.4,0,2.6,0,.3,0,.6,0,.8,0,.5,0,1.3,0,2,0,.6,0,1.2,0,1.7,0,4.4,3.4,4.7,4,4.7h116.1c.7,0,4-.2,4-4.7,0-.4,0-1.1,0-1.7,0-1.2,0-2.4,0-2.6v-5.2c0-2.2-1.8-4-4-4-15.9,0-25.5-3.5-31.1-11.2-8.9-12.3-2.7-34,.3-42.8,4.1-11.8,8.4-23.7,12.5-35.2,2.2-6,4.3-12.1,6.5-18.1l11.7-32.8,27.7-78.3h125.4l.3,1c0,.4,0,.8.2,1.1l5.5,15.9,1.7,5c.1.4.3.7.4,1h0c0,.2,0,.3.1.4l19.3,57.1,11.4,33.6c2.1,6.3,4.3,12.6,6.5,19,4.2,12.2,8.5,24.8,12.6,37.2,10,30.1-2,40.4-7.7,43.4-7.9,4.2-17.7,4-27.2,3.8-2,0-3.9,0-5.8,0s-4,1.8-4,4v3c0,1.5,0,3.2,0,4.6,0,.7,0,1.3,0,1.8,0,4.4,3.4,4.6,4,4.6h148.3c.7,0,1.3-.2,1.9-.5,2.1-1.1,2.1-2.7,2.2-5.8,0-1.2,0-2.4,0-2.6v-5.1ZM3497.7,573.8c12.6-35.7,20.7-59.2,28.6-81.8,7.6-21.8,15.4-44.4,27.3-78.1l53.4,159.9h-109.2Z"/>
    <path class="cls-1" d="M3869.9,834.2c.8.7,1.8,1.1,2.9,1.1l6.4-.2c1.4,0,2.6-.8,3.3-2,7.3-12.7,21-20.5,35.7-20.4,7.8,0,15.5,2.2,22.2,6.2,28.6,17.6,61.5,27,95.2,27.3,57.2,0,109.7-28.8,133.7-73.5,22.2-41.2,18.2-90.2-11.1-138.1,0,0,0-.1-.1-.2-20.7-29.8-49.6-55.7-123-84.9-13.8-6.1-27.4-11.2-40.6-16.2l-.9-.3c-25.6-9.6-48-18.7-63.8-32.5-16.8-14.7-24.4-33.8-23.9-59.9.4-22.5,7.2-38.5,20.8-48.9,13.8-10.6,34.9-15.7,64.4-15.7s4.3,0,6.2,0c0,0,.1,0,.2,0h1.3c42.5,0,102,29.9,129.7,114.3.5,1.6,2.1,2.8,3.8,2.8h8.5c2.2,0,4-1.8,4-4v-119.2c0-1.1-.5-2.2-1.3-2.9-.8-.8-1.9-1.1-3-1.1l-8.5.6c-1.3,0-2.5.8-3.2,2-5.9,10.1-16.7,16.3-28.4,16.3s-.2,0-.3,0c-6.9,0-13.6-2.1-19.4-6-27.4-17.5-59.1-26.7-91.6-26.6-42.3,0-77.6,15.6-96.8,42.8-17.4,21.3-26.4,48.2-25.3,75.6,0,0,0,.1,0,.2,4.6,59.9,41,76.1,101.3,103,3.5,1.6,7.1,3.2,10.8,4.8,10.6,4.8,22.7,10.2,35.1,16.1,8.7,4.1,17.1,7.9,25.2,11.6l.6.3c27.9,12.7,56.3,27.3,75.3,48.4,19.4,21.4,27.6,47.4,25.9,81.8-2.8,56.1-39.5,86.9-103.4,86.9s-4,0-5.8-.1c0,0-.2,0-.2,0h-2.6c-63.7-3-109.6-42.3-148.7-127.5-.7-1.4-2.1-2.3-3.6-2.3h-8.1c-1.1,0-2.1.4-2.9,1.2-.8.8-1.2,1.8-1.1,2.9l4.1,133.3c0,1.1.5,2.1,1.3,2.8Z"/>
    <path class="cls-1" d="M4241.5,370.4c0,1.9,1.3,3.6,3.2,4,.6.1,1.2.1,1.8,0,20.3,0,43,.3,55.8,19.8,6,10.2,8.9,21.8,8.3,33.7,0,0,0,.1,0,.2,0,14.8,0,30.8,0,46.8,0,16,0,32,0,46.7,0,32.4,0,67.7,0,104.8,0,41.1,0,84.5,0,128.7s0,.2,0,.3c.7,10.7-.6,21.3-4,31.5-4.8,12.3-15.3,21.8-27.9,25.6-10.7,2.4-21.7,3.2-32.7,2.4,0,0-.3,0-.4,0-2.2,0-4,1.8-4,4v5.1c0,.1,0,1.4,0,2.6,0,.6,0,1.2,0,1.7,0,4.4,3.4,4.7,4,4.7h160c1.1,0,2.1-.4,2.8-1.2,1.2-1.2,1.2-1.4,1.2-7.7v-5.1c0-2.2-1.8-4-4-4-25.8,0-45.1-4.1-55.3-24.2-4.9-11.9-6.9-25-5.8-37.8,0-.1,0-.2,0-.3,0-19.8,0-42.9,0-65.9,0-23,0-46,0-65.9v-26.2h234.1v88.8c0,9.7,0,20.7,0,31.7,0,11,0,21.9,0,31.7s0,3.6,0,5.5v7.5s0,0,0,.1c.2,7.7-.7,15.4-2.6,22.8-3.5,12.2-12,22.2-23.5,27.6-11,4-23,5.6-34.7,4.7-.1,0-.3,0-.4,0-2.2,0-4,1.8-4,4v3c0,1.5,0,3.2,0,4.6,0,.7,0,1.3,0,1.8,0,4.4,3.4,4.6,4,4.6h159.4c1.1,0,2.1-.4,2.8-1.2q1.2-1.2,1.2-7.7h-4s.4,0,.4,0h3.6s0-5.1,0-5.1c0-1.1-.4-2.1-1.2-2.8-.8-.8-1.8-1.2-2.8-1.2-24.4,0-44-1.5-56-19.8-6-10.2-8.9-21.8-8.3-33.7,0,0,0-.1,0-.2,0-14.8,0-30.8,0-46.7,0-16,0-32,0-46.7,0-38.1,0-77.4,0-116.8,0-39.3,0-78.7,0-116.8s0-.2,0-.3c-.7-10.8.6-21.5,4-31.8,10-25.6,35.3-27.8,60.3-27.8s4-1.8,4-4v-5.8c0-.1,0-1.4,0-2.6,0-.6,0-1.2,0-1.7,0-4.4-3.4-4.7-4-4.7h-159.4c-.7,0-4,.2-4,4.7,0,.5,0,1.1,0,1.7,0,1.2,0,2.4,0,2.6v5.8c0,2.3,1.6,3.7,3.1,4s1.3.1,1.8,0c24.6,0,43.1,4,53.4,22.3,5.5,11.7,7.9,24.8,6.8,37.7,0,.1,0,.2,0,.3,0,19.1,0,39.4,0,59.7,0,20.3,0,40.6,0,59.7v17.6h-234.1v-70.5c0-9.3,0-19.9,0-30.5,0-10.6,0-21.1,0-30.5s0-3.3,0-4.9c0-1.3,0-2.6,0-3.9v-1.2c0,0,0-.1,0-.2-.4-8.8.7-17.6,3.3-25.9,3.8-11.6,12.3-20.9,23.5-25.7,11-3.7,22.4-5.1,34-4.2,1.1,0,2.2-.3,3-1.1.8-.8,1.3-1.8,1.3-2.9v-5.8c0-.1,0-1.4,0-2.6,0-.6,0-1.2,0-1.7,0-4.4-3.4-4.7-4-4.7h-160c-.7,0-4,.2-4,4.7,0,.5,0,1.1,0,1.7,0,1.2,0,2.4,0,2.6v5.8Z"/>
    <path class="cls-1" d="M5197.7,818.9c0-1.1-.5-2.2-1.3-2.9-.8-.8-1.9-1.1-3-1.1-11.9.9-23.6-.6-34.9-4.5-14.8-6.5-25.1-25.8-30-36.8-2.2-5.1-4.1-10.6-5.8-16-.6-1.8-1.2-3.6-1.8-5.4l-33.6-98.6-89.5-262.9-11.5-32.3c-.6-1.6-2.1-2.7-3.8-2.7h-15.4s-48,0-48,0h0c-1.1,0-2.1.4-2.8,1.2-.8.8-1.2,1.8-1.2,2.8v10.5c0,1.1.5,2.2,1.3,3,.8.8,2,1.1,3.1,1,.2,0,16.6-1.7,25.3,7.2,4.5,4.6,6.2,11.6,5.1,20.6-7.9,21.5-15.7,44.4-23.3,66.5-5.2,15.2-10.5,30.8-15.8,45.6l-80.8,227.9c-.8,2.2-1.5,4.3-2.3,6.5-1.6,4.5-3.2,9.2-4.9,13.8-12,32.9-36.1,52.6-64.3,52.6s-4,.2-4,4.7c0,.5,0,1.1,0,1.7,0,1.2,0,2.4,0,2.6,0,.3,0,.6,0,.8,0,.5,0,1.3,0,2,0,.6,0,1.2,0,1.7,0,4.4,3.4,4.7,4,4.7h116.1c.7,0,4-.2,4-4.7,0-.4,0-1.1,0-1.7,0-1.2,0-2.4,0-2.6v-5.2c0-2.2-1.8-4-4-4-15.9,0-25.5-3.5-31.1-11.2-8.9-12.3-2.7-34,.3-42.8,4.1-11.8,8.4-23.7,12.5-35.2,2.2-6,4.3-12.1,6.5-18.1l11.7-32.8,27.7-78.3h125.4l.3,1c0,.4,0,.8.2,1.1l5.5,15.9,1.7,5c.1.4.3.7.4,1h0c0,.2,0,.3.1.4l19.3,57.1,11.4,33.6c2.1,6.3,4.3,12.6,6.5,19,4.2,12.2,8.5,24.8,12.6,37.2,10,30.1-2,40.4-7.7,43.4-7.9,4.2-17.7,4-27.2,3.8-2,0-3.9,0-5.8,0s-4,1.8-4,4v3c0,1.5,0,3.2,0,4.6,0,.7,0,1.3,0,1.8,0,4.4,3.4,4.6,4,4.6h148.3c.7,0,1.3-.2,1.9-.5,2.1-1.1,2.1-2.7,2.2-5.8,0-1.2,0-2.4,0-2.6v-5.1ZM4911.1,573.8c12.6-35.7,20.7-59.2,28.6-81.8,7.6-21.8,15.4-44.4,27.3-78.1l53.4,159.9h-109.2Z"/>
    <path class="cls-1" d="M2301,1488.9c-.5-.3-.9-.5-1.3-.7-1.9-1.1-4-2.2-6.4-1.2-2.5,1-3.4,3.7-4,5.3-8.4,24.9-22,45.8-40.5,62.1-14.9,13.1-32.9,23.2-53.7,30.2-35.6,12-67.1,10.5-67.4,10.5-.2,0-.4,0-.6,0-12.4,1.1-24.7-.2-36.6-3.7-13.9-5.7-24-18-27.1-32.7-1-4.8-1.6-9.7-1.6-14.6v-11c0-.8,0-1.7,0-2.5,0-.9,0-1.7,0-2.6,0-47.4,0-97.2,0-147.1,0-49.8,0-99.7,0-147s0-1.4,0-2.1c0-.5,0-1.1,0-1.6v-25.5c0-.6,0-1.2,0-1.8,0-.6,0-1.2,0-1.8,0,0,0,0,0-.1.2-16.6,9.2-32.2,23.5-40.7,11.3-6.1,23.9-6,37.2-5.9,1.4,0,2.9,0,4.3,0,2.2,0,4-1.8,4-4v-5.8c0-.1,0-1.4,0-2.6,0-.6,0-1.2,0-1.7,0-4.4-3.4-4.7-4-4.7h-156.8c-1.1,0-2.1.4-2.8,1.2q-1.2,1.2-1.2,7.7v5.8c0,2.3,1.6,3.7,3.2,4,.6.1,1.2.1,1.8,0,28.4.2,44.7,8.2,52.7,26.1,3.7,9.2,5.4,19.4,4.9,29.3,0,0,0,.1,0,.2,0,14.7,0,30.7,0,46.6,0,16,0,31.9,0,46.7,0,37.2,0,75.7,0,114.2,0,38.5,0,77,0,114.2s0,.1,0,.2c.4,8.5,0,17.1-1.3,25.6-2.4,13-10.3,24.3-21.6,31.1-10.9,5.2-23.1,7.4-35.1,6.4-1.1-.1-2.2.3-3,1s-1.3,1.8-1.3,2.9v2.9c0,1.5,0,3.2,0,4.6,0,.7,0,1.3,0,1.8,0,4.4,3.4,4.6,4,4.6h307.5c7.7,0,9.1-4.7,10.2-8.5.3-1.1.6-2.1,1.1-3.3.1-.3.2-.6.2-.9l14-107.3c.2-1.7-.6-3.3-2.1-4.1Z"/>
    <path class="cls-1" d="M2587.4,1124.5c-56.5,0-109.6,26.1-149.5,73.6-39.7,47.3-61.6,110-61.6,176.8s21.9,129.5,61.6,176.8c39.9,47.5,93,73.6,149.5,73.6s109.6-26.1,149.4-73.6c39.7-47.2,61.5-110,61.5-176.8s-21.9-129.6-61.5-176.8c-39.9-47.4-92.9-73.6-149.4-73.6ZM2587.4,1599.8c-44.5,0-86-23.6-117.1-66.3-31.2-42.9-48.3-100.4-48.3-161.7s17.2-118.8,48.4-161.7c31.1-42.8,72.6-66.3,117.1-66.3s86.3,23.6,117.7,66.3c31.5,43,48.9,100.5,48.9,161.7s-17.4,118.7-48.9,161.7c-31.4,42.8-73.1,66.3-117.7,66.3Z"/>
    <path class="cls-1" d="M3216.2,1482.5h-6.9c-1.4,0-2.7.7-3.4,2-30.7,52.1-62,81.6-101.4,95.7-36.6,13.1-76.7,12-127.5,10.7-16-.4-32.5-.8-50.1-.9,51.6-79.6,100.6-160.1,147.9-238,39.6-65.1,80.5-132.4,122.9-199,.3-.2.6-.4.8-.6.8-.8,1.2-1.8,1.2-2.9v-3.1c.4-1.4.2-3,0-4.7,0-.4,0-.9-.1-1.2.2-1,0-2-.5-2.8-.7-1.2-2-1.9-3.4-1.9h0c-43.8,0-87.8,0-131.7,0-47.7,0-97,0-145.4,0h-3.7c-1.7,0-3.2,1.1-3.8,2.7l-39.3,113.1c-.4,1.2-.2,2.6.5,3.6.8,1.1,2,1.7,3.3,1.7h7.1c1.3,0,2.5-.6,3.3-1.7,34.4-48.7,70.1-75.9,116-88.5,41.4-11.3,87.1-9.9,144.5-7.6-50.1,77-97.4,155-143.3,230.5-41.2,67.9-83.9,138.1-128.4,207.5-.4.6-.6,1.3-.6,2l-.4,9.8c0,1.1.3,2.2,1.1,2.9.8.8,1.8,1.2,2.9,1.2h170.5c19.9,0,40.1,0,59.7,0,12.2,0,24.7,0,37.2,0s20.8,0,31.1,0c1.6,0,3.1-1,3.7-2.5,8.1-20,14.9-40.7,20.1-61.6l19.9-61.2c.4-1.2.2-2.6-.6-3.6-.8-1-2-1.7-3.2-1.7Z"/>
    <path class="cls-1" d="M3719.8,1598.9c0-1.1-.5-2.2-1.3-2.9-.8-.8-1.9-1.1-3-1.1-11.9.9-23.6-.6-34.9-4.5-14.8-6.5-25.1-25.8-30-36.8-2.2-5.1-4.1-10.6-5.8-16-.6-1.8-1.2-3.6-1.8-5.4l-33.6-98.6-89.5-262.9-11.5-32.3c-.6-1.6-2.1-2.7-3.8-2.7h-15.4s-48,0-48,0h0c-1.1,0-2.1.4-2.8,1.2-.8.8-1.2,1.8-1.2,2.8v10.5c0,1.1.5,2.2,1.3,3s2,1.1,3.1,1c.2,0,16.6-1.7,25.3,7.2,4.5,4.6,6.2,11.5,5.1,20.6-7.9,21.5-15.7,44.3-23.3,66.5-5.2,15.2-10.5,30.8-15.8,45.6l-80.8,227.9c-.8,2.2-1.5,4.3-2.3,6.5-1.6,4.5-3.2,9.2-4.9,13.9-12,32.9-36.1,52.6-64.3,52.6s-4,.2-4,4.7c0,.5,0,1.1,0,1.7,0,1.2,0,2.4,0,2.6,0,.3,0,.6,0,.8,0,.5,0,1.3,0,2,0,.6,0,1.2,0,1.7,0,4.4,3.4,4.7,4,4.7h116.1c.7,0,4-.2,4-4.7,0-.4,0-1,0-1.7,0-1.2,0-2.4,0-2.6v-5.2c0-1.1-.4-2.1-1.2-2.8s-1.8-1.2-2.8-1.2c-15.9,0-25.5-3.5-31.1-11.2-8.9-12.3-2.7-34,.3-42.8,4.1-11.8,8.4-23.7,12.5-35.2,2.2-6,4.3-12.1,6.5-18.1l11.7-32.8,27.7-78.3h125.4l.3,1c0,.4,0,.8.2,1.1l5.5,15.9,1.7,5c.1.4.3.7.4,1h0c0,.2,0,.3.1.4l19.3,57.1,11.4,33.6c2.1,6.3,4.3,12.6,6.5,19,4.2,12.2,8.5,24.8,12.6,37.2,10,30.1-2,40.4-7.7,43.4-7.9,4.2-17.7,4-27.2,3.8-2,0-3.9,0-5.8,0s-4,1.8-4,4v3c0,1.5,0,3.2,0,4.6,0,.7,0,1.3,0,1.8,0,4.4,3.4,4.6,4,4.6h148.3c.7,0,1.3-.2,1.9-.5,2.1-1.1,2.1-2.7,2.1-5.8,0-1.2,0-2.4,0-2.6v-5.1ZM3433.2,1353.8c12.6-35.7,20.7-59.2,28.6-81.9,7.6-21.8,15.4-44.4,27.3-78.1l53.4,159.9h-109.2Z"/>
    <path class="cls-1" d="M4246.6,1135.7h-150.1c-1.1,0-2.1.4-2.8,1.2q-1.2,1.2-1.2,7.7v5.9c0,2.4,1.7,3.8,3.4,4.1.5,0,1.1,0,1.6,0,13.4.2,26.3,4.2,37.5,11.6,19.1,13.8,24.2,38.3,25.2,56.5,0,1.7.1,3.4.2,5v1.8s0,37.3,0,37.3c0,1.1,0,2.1,0,3.2,0,1.1,0,2.2,0,3.3,0,36.8,0,74.7,0,112.7,0,38,0,76,0,112.7v41.8c-17.9-28.2-35.1-56.7-51.9-84.3-19.1-31.4-38.8-63.8-59.2-95.7-15.7-24.4-31.5-49.4-46.7-73.6-30.5-48.2-62-98.1-94.3-146.3-.2-.3-.4-.6-.6-.9-1.4-2.1-2.2-2.9-4.8-3.8-.2,0-.4-.1-.6-.2-3.2-.7-6.4-.8-9.6-.3l-96.8.2c-2.2,0-4,1.8-4,4v11c0,1.1.5,2.2,1.3,2.9.8.8,1.9,1.1,3,1.1.2,0,22.5-1.5,41,15,15.9,14.2,24.5,37.4,25.6,68.8,0,.3,0,.6.1.8,0,24.7.1,51.4.2,78.4.2,80.1.4,162.9.4,198.3s0,0,0,.1c.4,13.8-1.7,27.4-6.4,40.4-9.2,24.1-32.6,39.5-58.4,38.4-1.1,0-2.2.4-2.9,1.1-.8.8-1.2,1.8-1.2,2.9v5.8c0,.1,0,1.4,0,2.6,0,.6,0,1.2,0,1.7,0,4.4,3.4,4.7,4,4.7,23.9,0,49.9-.3,75-.5,25.1-.3,51.1-.5,74.9-.5s2.1-.4,2.8-1.2q1.2-1.2,1.2-7.7v-5.9c0-2.4-1.7-3.8-3.4-4.1-.5,0-1.1,0-1.6,0-13.4-.2-26.3-4.2-37.5-11.6-19.1-13.8-24.2-38.3-25.2-56.5,0-1.7-.1-3.3-.2-5v-1.8s0-37.4,0-37.4c0-1.1,0-2.1,0-3.2,0-1.1,0-2.2,0-3.3,0-33.4,0-88.8,0-146.2,0-55.3,0-112.6,0-153.8,29.1,45.6,58.3,91.1,87.4,136.7,52,81.2,103.9,162.5,155.9,243.8l35.5,55.6c0,.1.1.2.2.3.7,1,1.7,1.5,3,1.5,0,0,.1,0,.2,0h10.6c1.1,0,2.1-.4,2.8-1.2q1.2-1.2,1.2-7.7v-163.3c0-33.7,0-68.7,0-103.7,0-35,0-69.9,0-103.7s0,0,0-.1c-.4-13.8,1.7-27.4,6.4-40.4,9.2-24.1,32.6-39.5,58.4-38.4,1.1,0,2.2-.4,2.9-1.1s1.2-1.8,1.2-2.9v-5.7c.3-6.3-.4-7-1.1-7.8-.8-.8-1.8-1.2-2.9-1.2Z"/>
    <path class="cls-1" d="M4518.4,1124.5c-56.5,0-109.6,26.1-149.5,73.6-39.7,47.3-61.6,110-61.6,176.8s21.9,129.5,61.6,176.8c39.9,47.5,93,73.6,149.5,73.6s109.6-26.1,149.4-73.6c39.7-47.2,61.5-110,61.5-176.8s-21.9-129.6-61.5-176.8c-39.9-47.4-92.9-73.6-149.4-73.6ZM4518.4,1599.8c-44.5,0-86-23.6-117.1-66.3-31.2-42.9-48.3-100.4-48.3-161.7s17.2-118.8,48.4-161.7c31.1-42.8,72.6-66.3,117.1-66.3s86.3,23.6,117.7,66.3c31.5,43,48.9,100.5,48.9,161.7s-17.4,118.7-48.9,161.7c-31.4,42.8-73.1,66.3-117.7,66.3Z"/>
    <path class="cls-1" d="M5125.6,1139.4c-.2-2.1-1.9-3.7-4-3.7h-326c-2.1,0-3.8,1.6-4,3.7-.1,2-.1,4.1,0,6.1,0,1.7,0,3.3,0,4.7,0,1.1.4,2.2,1.2,3s1.9,1.2,3,1.2c20.2-1,36.1,3.7,46.1,13.6,9.2,9.1,13.5,22.5,12.8,39.8,0,0,0,.1,0,.2v144.4c-.2.3-.3.6-.4.9-.4,1.1-.2,2.4.4,3.3,0,20.5,0,41.2,0,61.9,0,41.7,0,84.9,0,126.3.3,14.2-4.8,26.6-14.9,36-11.3,10.5-27.3,15.7-43.8,14.2-1.1,0-2.2.3-3.1,1-.8.8-1.3,1.8-1.3,3,0,10,0,10.2.2,10.7.4,1.9,2,3.2,3.9,3.2h149.2c1.1,0,2.1-.4,2.8-1.2.8-.8,1.2-1.8,1.2-2.9v-10c-.1-2.2-1.8-3.9-4-4-22.7-.6-37-6.2-46.3-18.2-6.9-9.4-10.4-21.1-9.9-32.7,0,0,0-.1,0-.2,0-55.7,0-113.1,0-168.6v-6.5s129.9,6.6,129.9,6.6c2.4.2,19.9,1.6,28.3-6.7,3.3-3.3,4.8-7.6,4.3-12.6-.7-8.1-6.4-14-16-16.7-6.6-1.9-13-1.6-13.2-1.6,0,0,0,0-.1,0l-133.3,10.5v-143.4c-.2-13,2.5-30.6,16-40.5,13.4-9.8,31.7-9.8,46.3-9.8s.3,0,.5,0c.8-.1,85.6-10.7,133.1,26.6,18,14.2,28.5,33.6,31.1,57.8.2,2,1.9,3.5,3.9,3.6h9.5c0,.1,0,.1,0,.1,2.1,0,3.9-1.7,4-3.8,0-.9,0-1.7-.2-2.6l-7.5-96.8Z"/>
    <path class="cls-1" d="M5541.4,1236.2l-7.5-96.8c-.2-2.1-1.9-3.7-4-3.7h-326c-2.1,0-3.8,1.6-4,3.7-.1,2-.1,4.1,0,6.1,0,1.7,0,3.3,0,4.7,0,1.1.4,2.2,1.2,3s1.9,1.2,3,1.2c20.2-1,36.1,3.7,46.1,13.6,9.2,9.1,13.5,22.5,12.8,39.8,0,0,0,.1,0,.2v144.4c-.2.3-.3.6-.4.9-.4,1.1-.2,2.4.4,3.3,0,20.5,0,41.2,0,61.9,0,41.7,0,84.9,0,126.3.3,14.2-4.8,26.6-14.9,36-11.3,10.5-27.3,15.7-43.8,14.2-1.1,0-2.2.3-3.1,1-.8.8-1.3,1.8-1.3,3,0,10,0,10.2.2,10.7.4,1.9,2,3.2,3.9,3.2h149.2c1.1,0,2.1-.4,2.8-1.2.8-.8,1.2-1.8,1.2-2.9v-10c-.1-2.2-1.8-3.9-4-4-22.7-.6-37-6.2-46.3-18.2-6.9-9.4-10.4-21.1-9.9-32.7,0,0,0-.1,0-.2,0-55.7,0-113.1,0-168.6v-6.5s129.9,6.6,129.9,6.6c2.4.2,19.9,1.6,28.3-6.7,3.3-3.3,4.8-7.6,4.3-12.6-.7-8.1-6.4-14-16-16.7-6.6-1.9-13-1.6-13.2-1.6,0,0,0,0-.1,0l-133.3,10.5v-143.4c-.2-13,2.5-30.6,16-40.5,13.4-9.8,31.7-9.8,46.3-9.8s.3,0,.5,0c.8-.1,85.6-10.7,133.1,26.6,18,14.2,28.5,33.6,31.1,57.8.2,2,1.9,3.5,3.9,3.6h9.5c0,.1,0,.1,0,.1,2.1,0,3.9-1.7,4-3.8,0-.9,0-1.7-.2-2.6Z"/>
  </g>
</svg>